# xmcd CD database file
#
# Track frame offsets:
#	150
#	14315
#	30412
#	43872
#	60630
#	77177
#	94305
#	113630
#	128592
#	141610
#	155884
#	169115
#
# Disc length: 2470 seconds
#
# Revision: 0
# Processed by: cddbd v1.4PL0 Copyright (c) Steve Scherf et al.
# Submitted via: CDex 1.50Beta3
#
DISCID=a109a40c
DTITLE=João Mineiro e Marciano - Chitãozinho e Xororó - O Melhores Momentos
DYEAR=1900
DGENRE=Country
TTITLE0=Ainda Ontem Chorei de Saudade
TTITLE1=Coração Quebrado
TTITLE2=Crises de Amor
TTITLE3=Terra Tombada
TTITLE4=Seu Amor ainda é Tudo
TTITLE5=Meu Disfarce
TTITLE6=A Mais Bonita das Noites
TTITLE7=No Mesmo Lugar
TTITLE8=Somos Apaixonados
TTITLE9=Benza Deus
TTITLE10=Fio de Cabelo
TTITLE11=Um Dia Só
EXTD=
EXTT0=
EXTT1=
EXTT2=
EXTT3=
EXTT4=
EXTT5=
EXTT6=
EXTT7=
EXTT8=
EXTT9=
EXTT10=
EXTT11=
PLAYORDER=
